<?xml version="1.0" encoding="UTF-8" standalone="no"?>
<svg
   xmlns:dc="http://purl.org/dc/elements/1.1/"
   xmlns:cc="http://creativecommons.org/ns#"
   xmlns:rdf="http://www.w3.org/1999/02/22-rdf-syntax-ns#"
   xmlns:svg="http://www.w3.org/2000/svg"
   xmlns="http://www.w3.org/2000/svg"
   xmlns:sodipodi="http://sodipodi.sourceforge.net/DTD/sodipodi-0.dtd"
   xmlns:inkscape="http://www.inkscape.org/namespaces/inkscape"
   id="svg1543"
   version="1.1"
   viewBox="0 0 327.98358 27.510809"
   height="27.510809mm"
   width="327.98358mm"
   sodipodi:docname="7-key-chanter.svg"
   inkscape:version="0.92.5 (2060ec1f9f, 2020-04-08)">
  <sodipodi:namedview
     pagecolor="#ffffff"
     bordercolor="#666666"
     borderopacity="1"
     objecttolerance="10"
     gridtolerance="10"
     guidetolerance="10"
     inkscape:pageopacity="0"
     inkscape:pageshadow="2"
     inkscape:window-width="1528"
     inkscape:window-height="836"
     id="namedview88"
     showgrid="false"
     inkscape:zoom="0.19057595"
     inkscape:cx="619.79804"
     inkscape:cy="51.967824"
     inkscape:window-x="72"
     inkscape:window-y="27"
     inkscape:window-maximized="1"
     inkscape:current-layer="svg1543" />
  <defs
     id="defs1537" />
  <metadata
     id="metadata1540">
    <rdf:RDF>
      <cc:Work
         rdf:about="">
        <dc:format>image/svg+xml</dc:format>
        <dc:type
           rdf:resource="http://purl.org/dc/dcmitype/StillImage" />
        <dc:title />
      </cc:Work>
    </rdf:RDF>
  </metadata>
  <g
     transform="rotate(90,129.50027,153.08629)"
     id="layer1">
    <g
       style="stroke-width:0.60000002;stroke-miterlimit:4;stroke-dasharray:none"
       id="g1445"
       transform="translate(-307.63177,-94.501846)">
      <path
         style="fill:none;stroke:#000000;stroke-width:0.60000002;stroke-linecap:butt;stroke-linejoin:miter;stroke-miterlimit:4;stroke-dasharray:none;stroke-opacity:1"
         d="m 287.67721,66.896199 c 6.39745,-0.318665 12.63911,-0.221905 18.85156,-0.04724 0.63336,1.614536 0.64463,2.946054 -1.27567,4.535713 -5.71238,0.109598 -11.03269,0.156439 -15.875,0.141742 -0.96366,-0.211128 -3.24568,-2.030928 -1.70089,-4.63021 z"
         id="path5134"
         inkscape:connector-curvature="0" />
      <path
         style="fill:none;stroke:#000000;stroke-width:0.60000002;stroke-linecap:butt;stroke-linejoin:miter;stroke-miterlimit:4;stroke-dasharray:none;stroke-opacity:1"
         d="m 289.89593,71.526414 c -0.51783,0 -1.39141,1.150008 -0.0477,1.572985 l 15.31852,-0.219531 c 0.81975,-0.16988 0.66156,-1.308612 0.0864,-1.495196"
         id="path5136"
         inkscape:connector-curvature="0" />
      <path
         style="fill:none;stroke:#000000;stroke-width:0.60000002;stroke-linecap:butt;stroke-linejoin:miter;stroke-miterlimit:4;stroke-dasharray:none;stroke-opacity:1"
         d="m 289.32384,72.792639 -0.28398,5.094827 -0.30068,8.201834 -0.33408,7.199572 -0.31738,5.779704 -0.86863,9.721924 -0.41761,6.08039 -0.50113,7.50025 -0.35079,7.66729 -0.41761,7.93456 -0.21716,7.38332 -0.18375,3.89212 -0.0835,4.44335 0.0334,1.41987 c 0.068,0.31039 -0.007,0.35679 0.45102,1.38646 0.22927,0.52848 0.61612,0.97818 1.01897,1.41987 0.30276,0.2833 0.63899,0.46618 0.98555,0.61806 0.14856,0.0341 0.34328,-0.0272 0.81851,-0.66817 0.17261,-0.47597 0.34523,-0.93373 0.51784,-1.5368 0.0931,-0.44011 0.0195,-0.80564 -0.15034,-1.18601 -0.22167,-0.39239 -0.55121,-0.66824 -0.90204,-0.85192 -0.15312,-0.11972 -0.29467,-0.18153 -0.46772,-0.4009 0,0 -0.41761,-0.80181 -0.45101,-1.16931 -0.0413,-0.24951 -0.21428,-2.23146 -0.20046,-2.43883 l 0.0167,-2.18827 c -0.0149,-0.36946 0.68298,-0.51888 0.7684,-0.83522 l 1.52093,-19.24758"
         id="path5138"
         inkscape:connector-curvature="0" />
      <path
         style="fill:none;stroke:#000000;stroke-width:0.60000002;stroke-linecap:butt;stroke-linejoin:miter;stroke-miterlimit:4;stroke-dasharray:none;stroke-opacity:1"
         d="m 290.39291,73.076613 c 0.36898,0.861344 0.59726,1.364774 -0.0334,3.441097 0.0667,0.376947 0.23482,0.517471 0.43432,0.584652"
         id="path5142"
         inkscape:connector-curvature="0" />
      <path
         style="fill:none;stroke:#000000;stroke-width:0.60000002;stroke-linecap:butt;stroke-linejoin:miter;stroke-miterlimit:4;stroke-dasharray:none;stroke-opacity:1"
         d="m 291.0945,73.210249 c 0.17102,0.820672 0.39461,1.596288 0.26727,2.672696 -0.12671,0.500388 -0.35642,0.846269 -0.56795,1.219417 l -0.18375,0.835218 0.0501,7.700703 -0.0192,20.102007"
         id="path5144"
         inkscape:connector-curvature="0" />
      <path
         style="fill:none;stroke:#000000;stroke-width:0.60000002;stroke-linecap:butt;stroke-linejoin:miter;stroke-miterlimit:4;stroke-dasharray:none;stroke-opacity:1"
         d="m 302.11937,80.20937 h 1.00226 c -1.81108,2.276414 -1.39938,4.991536 0.16704,7.934563 l -0.96885,0.267271 c -1.50625,-3.243281 -1.5896,-5.983079 -0.20045,-8.201834 z"
         id="path5150"
         inkscape:connector-curvature="0" />
      <path
         style="fill:none;stroke:#000000;stroke-width:0.60000002;stroke-linecap:butt;stroke-linejoin:miter;stroke-miterlimit:4;stroke-dasharray:none;stroke-opacity:1"
         d="m 303.12163,80.20937 0.70158,0.01669 0.65147,8.552624 0.68488,14.582896 0.55458,7.69069"
         id="path5171"
         inkscape:connector-curvature="0" />
      <path
         style="fill:none;stroke:#000000;stroke-width:0.60000002;stroke-linecap:butt;stroke-linejoin:miter;stroke-miterlimit:4;stroke-dasharray:none;stroke-opacity:1"
         d="m 303.15504,104.98191 -0.3508,-16.637524"
         id="path5173"
         inkscape:connector-curvature="0" />
      <path
         style="fill:none;stroke:#000000;stroke-width:0.60000002;stroke-linecap:butt;stroke-linejoin:miter;stroke-miterlimit:4;stroke-dasharray:none;stroke-opacity:1"
         d="m 291.36177,75.882945 c 4.03023,-0.106881 7.8943,0.0878 11.86343,-0.08018 l -0.10023,-1.65373 c -0.0335,-0.432515 0.38769,-1.039687 0.9154,-1.222759"
         id="path5177"
         inkscape:connector-curvature="0" />
      <path
         style="fill:none;stroke:#000000;stroke-width:0.60000002;stroke-linecap:butt;stroke-linejoin:miter;stroke-miterlimit:4;stroke-dasharray:none;stroke-opacity:1"
         d="m 291.21601,76.345604 12.35274,0.01654 c -0.26908,-0.09846 -0.36752,-0.678617 -0.34355,-0.559377"
         id="path5179"
         inkscape:connector-curvature="0" />
      <path
         style="fill:none;stroke:#000000;stroke-width:0.60000002;stroke-linecap:butt;stroke-linejoin:miter;stroke-miterlimit:4;stroke-dasharray:none;stroke-opacity:1"
         d="M 290.79383,77.102362 303.89947,76.92438"
         id="path5181"
         inkscape:connector-curvature="0" />
      <path
         style="fill:none;stroke:#000000;stroke-width:0.60000002;stroke-linecap:butt;stroke-linejoin:miter;stroke-miterlimit:4;stroke-dasharray:none;stroke-opacity:1"
         d="m 303.56875,76.362143 c 0.28663,0.121267 0.39687,0.308678 0.33072,0.562237"
         id="path5183"
         inkscape:connector-curvature="0" />
      <path
         style="fill:none;stroke:#000000;stroke-width:0.60000002;stroke-linecap:butt;stroke-linejoin:miter;stroke-miterlimit:4;stroke-dasharray:none;stroke-opacity:1"
         d="m 290.61007,77.937578 0.55633,0.309718 12.60078,-0.115755 c 0.42312,-0.42946 0.57919,-0.839845 0.13229,-1.207161"
         id="path5185"
         inkscape:connector-curvature="0" />
      <path
         style="fill:none;stroke:#000000;stroke-width:0.60000002;stroke-linecap:butt;stroke-linejoin:miter;stroke-miterlimit:4;stroke-dasharray:none;stroke-opacity:1"
         d="m 291.1664,78.247294 c -0.77841,0.450982 -0.5243,0.843946 0.0484,1.233768 l 12.04383,-0.116932 c 0.91547,-0.232914 0.68833,-1.037841 0.0292,-1.232589"
         id="path5187"
         inkscape:connector-curvature="0" />
      <path
         style="fill:none;stroke:#000000;stroke-width:0.60000002;stroke-linecap:butt;stroke-linejoin:miter;stroke-miterlimit:4;stroke-dasharray:none;stroke-opacity:1"
         d="m 302.87273,79.422594 -0.12862,0.689891"
         id="path5189"
         inkscape:connector-curvature="0" />
      <path
         style="fill:none;stroke:#000000;stroke-width:0.60000002;stroke-linecap:butt;stroke-linejoin:miter;stroke-miterlimit:4;stroke-dasharray:none;stroke-opacity:1"
         d="m 290.8172,79.177042 -0.0234,1.028986 c -0.0232,0.132775 0.51053,0.441526 0.46772,0.537882 v 23.50301 c -0.0273,0.71733 -0.37818,1.06596 -0.62056,1.49337 -0.33286,0.40643 -0.58923,0.78226 -0.99893,1.21942 l -1.30377,1.26284 c -0.19755,0.22472 -0.29186,0.43426 -0.35664,0.60804 -0.15835,0.39355 -0.24098,0.70546 -0.27479,1.00561 l -0.0234,4.34981 -0.0234,5.26187 c 0.0935,2.12034 0.20057,5.73458 0.32156,6.3727 0.0973,0.49987 0.12809,0.83059 0.33325,1.1927 l 1.26286,1.74226 c 0.46552,0.66791 1.03896,1.28786 1.37977,2.0112 0.37329,0.78783 0.44595,1.21489 0.5145,1.63703 0.19667,1.86028 0.19446,3.45537 0.21048,5.07478 l 0.63147,25.32713 c -0.0121,0.19112 -0.91985,0.17149 -1.37978,0.25724 -0.34327,0.15246 -0.68187,0.35353 -0.9149,0.63827 -0.12122,0.20131 -0.30145,0.1576 -0.37134,1.32616 l -0.0234,1.47333 0.0234,4.3732 0.0468,1.40316 c 0.0733,0.42588 0.41707,0.64676 0.72497,0.81851 0.4827,0.21165 1.38185,0.43932 1.3564,0.63143 l 0.0231,0.55943 0.0237,0.51636 0.0852,35.35505 c 0.0452,0.35133 -0.79245,0.17743 -0.79748,0.95101 0.0477,0.62071 0.5368,0.56332 0.54992,0.93237 0.2446,4.00367 -3.23519,10.38847 -3.11176,10.80828 -0.0546,3.33641 -0.32613,9.32216 -0.16371,10.00924 0.15472,0.77434 3.12594,3.11425 3.25067,3.77685 0.96989,1.00662 0.84604,11.4298 0.98221,17.11862 0.014,0.63631 -2.22053,0.32786 -2.48743,0.70677 -0.52684,0.96889 -0.69375,2.02777 -0.69307,3.12854 -0.0147,3.38854 -0.11201,9.43221 -0.044,10.16562 0.22264,0.16056 0.75359,0.35589 1.03493,0.79502 0.23331,0.36416 0.0969,1.56216 0.22508,1.43399 0.5145,0.21827 1.58521,0.41668 1.54349,0.65481 v 22.26355 3.64823"
         id="path5191"
         inkscape:connector-curvature="0" />
      <path
         style="fill:none;stroke:#000000;stroke-width:0.60000002;stroke-linecap:butt;stroke-linejoin:miter;stroke-miterlimit:4;stroke-dasharray:none;stroke-opacity:1"
         d="m 292.05951,152.63132 c -0.0818,-0.13707 -0.18001,-0.37369 -0.68104,-0.4897 -0.61667,-0.0262 -0.91742,0.39036 -0.91206,0.65481 l -0.0935,7.24969 c 0.0892,0.11748 0.56291,0.10604 0.53788,0.23386 l 0.0234,2.78294 v 0"
         id="path5193"
         inkscape:connector-curvature="0" />
      <path
         style="fill:none;stroke:#000000;stroke-width:0.60000002;stroke-linecap:butt;stroke-linejoin:miter;stroke-miterlimit:4;stroke-dasharray:none;stroke-opacity:1"
         d="m 288.31484,127.01328 c -0.77138,1.56746 -1.08255,4.89909 -1.33216,8.4667 l -0.66146,11.97239 0.22971,10.46561"
         id="path5206"
         inkscape:connector-curvature="0" />
      <path
         style="fill:none;stroke:#000000;stroke-width:0.60000002;stroke-linecap:butt;stroke-linejoin:miter;stroke-miterlimit:4;stroke-dasharray:none;stroke-opacity:1"
         d="m 289.6947,172.27704 -0.52921,4.97403 -0.46302,2.9931 c -0.18472,0.90681 -0.36481,1.80899 -0.46303,2.62929 -0.14127,1.46263 -0.0337,2.2618 -0.0496,3.38998 -0.0565,0.0882 0.63065,0.17639 1.20716,0.26458 0.17951,0.23421 1.03379,-1.64192 1.38906,-2.89388 0.29879,-0.77992 0.20947,-2.64996 0.3142,-5.1263 0.0419,-0.97737 0.46971,-1.64609 0.71107,-2.46394"
         id="path5210"
         inkscape:connector-curvature="0" />
      <path
         style="fill:none;stroke:#000000;stroke-width:0.60000002;stroke-linecap:butt;stroke-linejoin:miter;stroke-miterlimit:4;stroke-dasharray:none;stroke-opacity:1"
         d="m 289.74426,186.13115 -0.0496,-3.20807 c 0.1467,-1.14956 0.33575,-2.34852 0.74414,-3.80339 l 1.33727,-5.39271"
         id="path5212"
         inkscape:connector-curvature="0" />
      <path
         style="fill:none;stroke:#000000;stroke-width:0.60000002;stroke-linecap:butt;stroke-linejoin:miter;stroke-miterlimit:4;stroke-dasharray:none;stroke-opacity:1"
         d="m 290.55999,298.60866 -0.0468,-1.1693 -1.40317,-26.0521 -0.60804,-14.12519 -0.98221,-20.11203 -1.02899,-14.73324 c -0.51398,-6.32022 -0.69184,-12.72447 -0.21048,-19.29352 l 0.46773,-2.40876 c 0.1529,-0.52288 0.28372,-1.03105 0.98221,-1.91766 0.45117,-0.50128 0.72701,-0.58176 1.02899,-0.72497 0.38459,-0.10393 0.66372,-0.10243 0.95883,-0.11693 0.3681,-0.003 0.72278,0.02 1.02899,0.14032 0.3279,0.19439 0.57684,0.38589 0.78343,0.76004 0.12025,0.22275 0.23353,0.45245 0.29233,0.73666 l -0.11693,1.09915 c -0.15104,0.27481 -0.27745,0.40181 -0.39757,0.49111 l -1.23946,0.79512 c -0.37476,0.26488 -0.67371,0.54975 -0.83021,0.87699 -0.31861,0.51347 -0.3574,0.82938 -0.5028,1.34469 l -0.21047,2.08136 -0.1637,2.362 0.28063,4.7006 1.02899,6.45456"
         id="path5214"
         inkscape:connector-curvature="0" />
      <path
         style="fill:none;stroke:#000000;stroke-width:0.60000002;stroke-linecap:butt;stroke-linejoin:miter;stroke-miterlimit:4;stroke-dasharray:none;stroke-opacity:1"
         d="m 290.93413,235.74687 0.88868,8.2319 0.65481,3.55468"
         id="path5216"
         inkscape:connector-curvature="0" />
      <path
         style="fill:none;stroke:#000000;stroke-width:0.60000002;stroke-linecap:butt;stroke-linejoin:miter;stroke-miterlimit:4;stroke-dasharray:none;stroke-opacity:1"
         d="m 290.13049,254.46096 -0.73984,-20.2108"
         id="path5218"
         inkscape:connector-curvature="0" />
      <path
         style="fill:none;stroke:#000000;stroke-width:0.60000002;stroke-linecap:butt;stroke-linejoin:miter;stroke-miterlimit:4;stroke-dasharray:none;stroke-opacity:1"
         d="m 288.66168,222.23304 c -1.27721,-6.3771 -1.65246,-12.87578 -1.12253,-19.55077 0.11975,-0.74233 0.0416,-1.79343 0.40157,-2.57579 0.15135,-0.40704 0.39013,-0.79659 0.76175,-1.15958 0.27346,-0.21329 0.54969,-0.42519 0.9095,-0.59531 0.32254,-0.16916 0.72593,-0.21706 1.13508,-0.25631"
         id="path5220"
         inkscape:connector-curvature="0" />
      <path
         style="fill:none;stroke:#000000;stroke-width:0.60000002;stroke-linecap:butt;stroke-linejoin:miter;stroke-miterlimit:4;stroke-dasharray:none;stroke-opacity:1"
         d="m 303.15504,104.98191 c -0.0358,0.87558 0.9574,2.13648 1.41318,3.10033 0.58577,1.13812 0.92074,1.87868 1.14592,2.97003 l 0.23386,8.13836 0.23386,7.15614 c 0.0426,0.40072 -1.30196,1.24343 -1.44994,1.87089 -0.48552,1.26138 -1.16299,2.39478 -1.30962,3.88209 -0.25059,1.06574 -0.0988,2.2702 -0.0468,3.08696 l 0.37418,7.9045 c 0.007,0.35576 0.2977,0.6592 0.28063,0.93544 l 0.14032,8.83994 c -0.004,0.0484 -0.22424,0.18324 -0.23386,0.23386 l 0.56127,56.9685 c 0.0457,0.42473 0.6313,0.39463 0.70158,0.93545 0.002,0.53101 -0.82827,0.81079 -0.74836,1.21607 l 0.46772,2.57247"
         id="path5222"
         inkscape:connector-curvature="0" />
      <path
         style="fill:none;stroke:#000000;stroke-width:0.60000002;stroke-linecap:butt;stroke-linejoin:miter;stroke-miterlimit:4;stroke-dasharray:none;stroke-opacity:1"
         d="m 305.71414,111.05227 3.55469,35.26622 c 0.26078,3.10641 0.0623,5.42557 0.0935,8.13835 -0.0107,0.1491 -0.2456,0.19042 -0.37418,0.0468 -0.65678,-1.68194 -1.47722,-3.43925 -1.6838,-5.42558 -4e-5,-0.12753 -0.59081,0.0321 -0.56126,-0.14031 l -0.42095,-4.95785 -0.79513,-11.22532 c -0.006,-1.39397 -0.20493,-3.80943 -0.44434,-5.14494"
         id="path5224"
         inkscape:connector-curvature="0" />
      <path
         style="fill:none;stroke:#000000;stroke-width:0.60000002;stroke-linecap:butt;stroke-linejoin:miter;stroke-miterlimit:4;stroke-dasharray:none;stroke-opacity:1"
         d="m 306.18186,126.34677 1.44994,13.93811 0.23386,2.80633 c -0.017,0.84122 -1.16151,1.3408 -1.47332,1.96442"
         id="path5226"
         inkscape:connector-curvature="0" />
      <path
         style="fill:none;stroke:#000000;stroke-width:0.60000002;stroke-linecap:butt;stroke-linejoin:miter;stroke-miterlimit:4;stroke-dasharray:none;stroke-opacity:1"
         d="m 304.91901,214.79294 c -0.14053,0.52789 -0.21718,1.04665 -0.14031,1.54348 0.0454,0.75437 0.37052,1.47378 0.65481,2.19829 l 1.82411,3.78855 c 0.15667,0.48346 0.4591,0.99608 0.46772,1.44993 v 2.94665 l -0.35079,6.55979 c -0.20348,0.64343 -0.34782,1.09318 -0.77174,1.34471 -0.75771,0.43031 -1.18724,1.03732 -1.54348,1.6838 -0.44349,0.73026 -0.82938,1.53058 -0.8419,2.24506 l 0.14032,22.49741 v 0.98222 c 0.10944,0.48861 2.32691,1.56686 2.66601,2.24506 v 3.60146 c -1.5249,1.63317 -1.02119,2.38148 -1.35639,2.43215 -0.517,-9.8e-4 -1.56113,-0.20694 -1.54348,0 l -0.14032,7.71741 c -0.48861,0.80293 -1.32152,0.95962 -1.54348,1.91765 -0.4266,1.72989 -0.4331,2.35182 -0.46772,4.77078 0.0396,0.92751 0.0792,1.85508 0.51449,3.08694 0.3829,0.70409 0.83351,1.30664 1.40317,1.73059 0.38512,0.16894 0.63455,0.11175 0.93544,0.14031 l 0.14032,6.40778"
         id="path5228"
         inkscape:connector-curvature="0" />
      <path
         style="fill:none;stroke:#000000;stroke-width:0.60000002;stroke-linecap:butt;stroke-linejoin:miter;stroke-miterlimit:4;stroke-dasharray:none;stroke-opacity:1"
         d="m 303.98357,278.02891 c -0.40827,1.45018 -0.62069,2.88405 -0.65481,4.30305 -0.036,1.7703 0.12416,3.0696 0.23386,4.49011 0.0591,0.50249 0.14843,1.02924 0.51449,1.77734 l 0.74836,1.07577 c 0.47365,-0.0793 0.92127,-0.43665 1.02899,-0.79513 l 0.51449,-10.2431 0.65481,-10.7576"
         id="path5230"
         inkscape:connector-curvature="0" />
      <path
         style="fill:none;stroke:#000000;stroke-width:0.60000002;stroke-linecap:butt;stroke-linejoin:miter;stroke-miterlimit:4;stroke-dasharray:none;stroke-opacity:1"
         d="m 307.02376,264.27789 1.63703,-46.72539 c 0,0 1.54351,-42.89008 1.49671,-42.89008 l 0.42095,-10.47696 c -0.0158,-0.60884 -10e-4,-1.70916 -0.32741,-1.59026 -0.66984,0.34244 -1.18452,2.45079 -1.40316,3.60146 -0.17272,1.28225 -0.0797,1.61533 -0.0468,2.16321 l 0.0585,6.50133 c -0.0679,1.65874 -0.20617,2.82104 -0.38587,3.30913 -0.21827,0.5145 -0.57863,1.02899 -0.65481,1.54349 l -1.87089,29.56001 c -0.26693,2.37216 -0.68599,3.67941 -1.02899,5.51911"
         id="path5232"
         inkscape:connector-curvature="0" />
      <path
         style="fill:none;stroke:#000000;stroke-width:0.60000002;stroke-linecap:butt;stroke-linejoin:miter;stroke-miterlimit:4;stroke-dasharray:none;stroke-opacity:1"
         d="m 290.6535,301.88271 c 0.35859,4.41217 1.07295,11.90772 1.07576,13.23652 -0.3092,1.3169 -0.72915,2.58951 -0.74835,4.02241 0.0655,2.09366 0.57432,4.08881 0.88867,6.12717 0.0408,0.39298 0.1003,0.79218 0.23386,1.21607 0.12069,0.0637 0.50462,0.0397 0.79513,0.0468 0.16757,-0.98614 0.38465,-1.92278 0.46772,-2.99342 l 0.0468,-5.47232 c -0.0411,-0.7216 -0.82275,-1.88337 -0.93544,-2.52572 l -0.18709,-11.69305"
         id="path5236"
         inkscape:connector-curvature="0" />
      <path
         style="fill:none;stroke:#000000;stroke-width:0.60000002;stroke-linecap:butt;stroke-linejoin:miter;stroke-miterlimit:4;stroke-dasharray:none;stroke-opacity:1"
         d="m 292.75825,316.28855 c -0.3908,1.36454 -0.4799,2.79871 -0.46772,4.25625 l 0.60804,5.98689"
         id="path5238"
         inkscape:connector-curvature="0" />
      <path
         style="fill:none;stroke:#000000;stroke-width:0.60000002;stroke-linecap:butt;stroke-linejoin:miter;stroke-miterlimit:4;stroke-dasharray:none;stroke-opacity:1"
         d="m 292.19692,296.55072 c 4.14798,-0.37254 8.43488,-0.46724 12.76887,-0.46776 v 0 c 2.03508,0.63303 1.26564,1.54808 1.1693,2.10476 l -15.5751,0.42094 c 0.40506,-0.87928 0.98333,-1.5204 1.63693,-2.05794 z"
         id="path5240"
         inkscape:connector-curvature="0" />
      <path
         style="fill:none;stroke:#000000;stroke-width:0.60000002;stroke-linecap:butt;stroke-linejoin:miter;stroke-miterlimit:4;stroke-dasharray:none;stroke-opacity:1"
         d="m 306.13509,298.18772 c 2.39605,1.38894 1.84608,2.58576 -0.0468,3.69499 h -15.43482 c -1.5781,-1.52215 -0.93796,-2.42655 -0.0935,-3.27406"
         id="path5242"
         inkscape:connector-curvature="0" />
      <path
         style="fill:none;stroke:#000000;stroke-width:0.60000002;stroke-linecap:butt;stroke-linejoin:miter;stroke-miterlimit:4;stroke-dasharray:none;stroke-opacity:1"
         d="m 290.6535,301.88271 c -0.1344,1.01498 1.51069,2.05068 1.63706,1.96445 4.56817,-0.1865 9.19737,-0.007 13.70421,-0.56129 0.92012,-0.26699 0.8029,-1.21274 0.0935,-1.40316 v 0"
         id="path5244"
         inkscape:connector-curvature="0" />
      <path
         style="fill:none;stroke:#000000;stroke-width:0.60000002;stroke-linecap:butt;stroke-linejoin:miter;stroke-miterlimit:4;stroke-dasharray:none;stroke-opacity:1"
         d="m 304.91901,303.37943 -0.28063,23.52638"
         id="path5246"
         inkscape:connector-curvature="0" />
      <path
         style="fill:none;stroke:#000000;stroke-width:0.60000002;stroke-linecap:butt;stroke-linejoin:miter;stroke-miterlimit:4;stroke-dasharray:none;stroke-opacity:1"
         d="m 292.89857,326.53169 0.0702,0.46768 c 3.92997,-0.23163 7.80072,-0.16718 11.66965,-0.0936"
         id="path5248"
         inkscape:connector-curvature="0" />
      <path
         style="fill:none;stroke:#000000;stroke-width:0.60000002;stroke-linecap:butt;stroke-linejoin:miter;stroke-miterlimit:4;stroke-dasharray:none;stroke-opacity:1"
         d="m 292.96877,326.99937 c -0.87681,0.51449 -0.91994,1.02898 -0.5847,1.54347 l 12.39463,0.0233 c 0.53651,-1.53411 -0.0522,-1.59918 -0.60804,-1.70717"
         id="path5250"
         inkscape:connector-curvature="0" />
      <path
         style="fill:none;stroke:#000000;stroke-width:0.60000002;stroke-linecap:butt;stroke-linejoin:miter;stroke-miterlimit:4;stroke-dasharray:none;stroke-opacity:1"
         d="m 291.77603,328.98718 c 4.49013,-0.0945 8.98026,-0.0998 13.47039,-0.0702 0.176,0.2068 0.58605,0.46014 0.53787,0.94716 0.007,0.39193 -0.18726,0.68355 -0.60803,0.83021 -4.34698,0.12825 -8.71057,0.19003 -13.11959,0.0701 -0.50101,-0.11457 -0.78547,-0.4315 -0.81852,-0.88866 0.0205,-0.32423 0.004,-0.655 0.53788,-0.88861 z"
         id="path5252"
         inkscape:connector-curvature="0" />
      <path
         style="fill:none;stroke:#000000;stroke-width:0.60000002;stroke-linecap:butt;stroke-linejoin:miter;stroke-miterlimit:4;stroke-dasharray:none;stroke-opacity:1"
         d="m 291.77603,328.98718 0.60804,-0.44434"
         id="path5254"
         inkscape:connector-curvature="0" />
      <path
         style="fill:none;stroke:#000000;stroke-width:0.60000002;stroke-linecap:butt;stroke-linejoin:miter;stroke-miterlimit:4;stroke-dasharray:none;stroke-opacity:1"
         d="m 304.7787,328.56612 0.46772,0.35087"
         id="path5256"
         inkscape:connector-curvature="0" />
      <path
         style="fill:none;stroke:#000000;stroke-width:0.60000002;stroke-linecap:butt;stroke-linejoin:miter;stroke-miterlimit:4;stroke-dasharray:none;stroke-opacity:1"
         d="m 292.57116,330.83469 c -0.28701,0.31861 -0.35079,0.72652 -0.3274,1.1693 4.19152,0.12294 8.35894,0.14951 12.48817,0.0233 0.088,-0.57728 -0.0259,-0.9894 -0.28064,-1.28625"
         id="path5258"
         inkscape:connector-curvature="0" />
      <path
         style="fill:none;stroke:#000000;stroke-width:0.60000002;stroke-linecap:butt;stroke-linejoin:miter;stroke-miterlimit:4;stroke-dasharray:none;stroke-opacity:1"
         d="m 292.24376,332.00399 v 0 l -0.5145,30.17019 c 5.30828,-0.17971 9.05218,-0.0589 12.99983,0.0165 l 0.003,-30.16342"
         id="path5260"
         inkscape:connector-curvature="0" />
      <path
         style="fill:none;stroke:#000000;stroke-width:0.60000002;stroke-linecap:butt;stroke-linejoin:miter;stroke-miterlimit:4;stroke-dasharray:none;stroke-opacity:1"
         d="m 291.72926,362.17418 -0.0468,1.89212 c 0.0102,0.071 -0.64793,0.15289 -0.70158,0.56129 -0.0206,0.5248 0.78158,0.41805 0.60804,0.65479 0.15681,3.65421 -0.45996,6.80857 -5.96345,6.80535 -0.85334,-0.0194 -1.45721,1.03781 -1.21608,1.49672 -0.0307,1.5807 0.26971,1.83661 0.58465,2.03459 l 17.04845,0.16362 c 3.06555,-0.0899 6.04613,0.0619 9.16735,-0.58466 l 0.0468,-2.08137 c 0.0424,-0.11692 -0.73012,-0.23385 -1.09915,-0.35077 -1.2362,-0.245 -1.89405,-0.15304 -3.10467,-0.92743 -0.7912,-0.81296 -1.76637,-1.94381 -1.94672,-2.93129 -0.27781,-1.17993 -0.44754,-1.85989 -0.30402,-3.46115 -0.1095,-0.3598 0.60088,-0.19976 0.6782,-0.67818 0.0751,-0.5613 -0.8282,-0.49951 -0.93544,-0.72498 l 0.18425,-1.85211"
         id="path5262"
         inkscape:connector-curvature="0" />
      <path
         style="fill:none;stroke:#000000;stroke-width:0.60000002;stroke-linecap:butt;stroke-linejoin:miter;stroke-miterlimit:4;stroke-dasharray:none;stroke-opacity:1"
         d="m 284.99404,375.61904 c 1.21113,0.32727 2.27313,0.95475 15.87918,1.1693 3.2194,-0.0936 6.35287,-0.27319 9.44798,-0.49112 0.50968,-0.23833 0.67882,-0.68099 0.88864,-1.09924 v 0"
         id="path5264"
         inkscape:connector-curvature="0" />
      <path
         style="fill:none;stroke:#000000;stroke-width:0.60000002;stroke-linecap:butt;stroke-linejoin:miter;stroke-miterlimit:4;stroke-dasharray:none;stroke-opacity:1"
         d="m 292.19698,334.76354 c 4.30492,-0.14658 8.43159,-0.0703 12.48817,0.0935"
         id="path5266"
         inkscape:connector-curvature="0" />
      <path
         style="fill:none;stroke:#000000;stroke-width:0.60000002;stroke-linecap:butt;stroke-linejoin:miter;stroke-miterlimit:4;stroke-dasharray:none;stroke-opacity:1"
         d="m 292.15021,335.67561 c 4.17052,-0.14333 8.34104,-0.12166 12.51156,0.0468"
         id="path5270"
         inkscape:connector-curvature="0" />
      <path
         style="fill:none;stroke:#000000;stroke-width:0.60000002;stroke-linecap:butt;stroke-linejoin:miter;stroke-miterlimit:4;stroke-dasharray:none;stroke-opacity:1"
         d="m 292.12683,336.3304 c 4.1939,-0.13844 8.38781,-0.10308 12.58171,0.0702"
         id="path5272"
         inkscape:connector-curvature="0" />
      <path
         style="fill:none;stroke:#000000;stroke-width:0.60000002;stroke-linecap:butt;stroke-linejoin:miter;stroke-miterlimit:4;stroke-dasharray:none;stroke-opacity:1"
         d="m 292.12683,338.41177 c 4.21511,-0.058 8.40551,-0.0666 12.55832,0"
         id="path5274"
         inkscape:connector-curvature="0" />
      <path
         style="fill:none;stroke:#000000;stroke-width:0.60000002;stroke-linecap:butt;stroke-linejoin:miter;stroke-miterlimit:4;stroke-dasharray:none;stroke-opacity:1"
         d="m 292.03328,339.23029 c 4.24068,-0.0846 8.48135,-0.0792 12.72203,0.0233"
         id="path5276"
         inkscape:connector-curvature="0" />
      <path
         style="fill:none;stroke:#000000;stroke-width:0.60000002;stroke-linecap:butt;stroke-linejoin:miter;stroke-miterlimit:4;stroke-dasharray:none;stroke-opacity:1"
         d="m 292.03328,340.0488 c 4.23288,-0.0932 8.46577,-0.12516 12.69865,-0.0936"
         id="path5278"
         inkscape:connector-curvature="0" />
      <path
         style="fill:none;stroke:#000000;stroke-width:0.60000002;stroke-linecap:butt;stroke-linejoin:miter;stroke-miterlimit:4;stroke-dasharray:none;stroke-opacity:1"
         d="m 291.93974,354.12723 c 4.31557,-0.14674 8.60059,-0.20185 12.79219,0.0233"
         id="path5280"
         inkscape:connector-curvature="0" />
      <path
         style="fill:none;stroke:#000000;stroke-width:0.60000002;stroke-linecap:butt;stroke-linejoin:miter;stroke-miterlimit:4;stroke-dasharray:none;stroke-opacity:1"
         d="m 291.79942,354.99252 c 3.96621,-0.13364 8.17341,-0.15444 12.88573,0.0233"
         id="path5282"
         inkscape:connector-curvature="0" />
      <path
         style="fill:none;stroke:#000000;stroke-width:0.60000002;stroke-linecap:butt;stroke-linejoin:miter;stroke-miterlimit:4;stroke-dasharray:none;stroke-opacity:1"
         d="m 291.82281,355.69409 c 4.33464,-0.048 8.63684,10e-4 12.90912,0.14031"
         id="path5284"
         inkscape:connector-curvature="0" />
      <path
         style="fill:none;stroke:#000000;stroke-width:0.60000002;stroke-linecap:butt;stroke-linejoin:miter;stroke-miterlimit:4;stroke-dasharray:none;stroke-opacity:1"
         d="m 291.77603,358.31333 c 4.31863,-0.0766 8.63727,-0.0711 12.9559,-0.0233"
         id="path5286"
         inkscape:connector-curvature="0" />
      <path
         style="fill:none;stroke:#000000;stroke-width:0.60000002;stroke-linecap:butt;stroke-linejoin:miter;stroke-miterlimit:4;stroke-dasharray:none;stroke-opacity:1"
         d="m 291.75265,359.22538 c 4.27657,-0.1682 8.5937,-0.17421 12.9325,-0.0935"
         id="path5288"
         inkscape:connector-curvature="0" />
      <path
         style="fill:none;stroke:#000000;stroke-width:0.60000002;stroke-linecap:butt;stroke-linejoin:miter;stroke-miterlimit:4;stroke-dasharray:none;stroke-opacity:1"
         d="m 288.59553,66.665487 -0.0936,-12.06722 0.56127,-2.057974 -0.0468,-3.040192 15.43481,-0.09354 0.88867,16.744437 1.18881,0.697965"
         id="path5290"
         inkscape:connector-curvature="0" />
      <ellipse
         style="fill:none;stroke:#000000;stroke-width:0.60000002;stroke-miterlimit:4;stroke-dasharray:none;stroke-opacity:1"
         id="path5292"
         cx="296.35971"
         cy="109.41525"
         rx="1.6675811"
         ry="2.0417583" />
      <ellipse
         style="fill:none;stroke:#000000;stroke-width:0.60000002;stroke-miterlimit:4;stroke-dasharray:none;stroke-opacity:1"
         id="path5292-7"
         cx="274.38846"
         cy="169.78233"
         rx="1.6599218"
         ry="2.2445736"
         transform="rotate(-8.4924796)" />
      <ellipse
         style="fill:none;stroke:#000000;stroke-width:0.60000002;stroke-miterlimit:4;stroke-dasharray:none;stroke-opacity:1"
         id="path5292-1"
         cx="296.57019"
         cy="147.55797"
         rx="1.9034815"
         ry="2.2776587" />
      <ellipse
         style="fill:none;stroke:#000000;stroke-width:0.60000002;stroke-miterlimit:4;stroke-dasharray:none;stroke-opacity:1"
         id="path5292-72"
         cx="296.6871"
         cy="166.99179"
         rx="1.6675811"
         ry="2.0417583" />
      <ellipse
         style="fill:none;stroke:#000000;stroke-width:0.60000002;stroke-miterlimit:4;stroke-dasharray:none;stroke-opacity:1"
         id="path5292-722"
         cx="297.0379"
         cy="184.9523"
         rx="2.3397939"
         ry="3.7195725" />
      <ellipse
         style="fill:none;stroke:#000000;stroke-width:0.60000002;stroke-miterlimit:4;stroke-dasharray:none;stroke-opacity:1"
         id="path5292-6"
         cx="297.15485"
         cy="207.42633"
         rx="2.2501087"
         ry="3.1153936" />
      <ellipse
         style="fill:none;stroke:#000000;stroke-width:0.60000002;stroke-miterlimit:4;stroke-dasharray:none;stroke-opacity:1"
         id="path5292-10"
         cx="296.80405"
         cy="232.65991"
         rx="1.8597099"
         ry="2.2572732" />
      <path
         style="fill:none;stroke:#000000;stroke-width:0.60000002;stroke-linecap:butt;stroke-linejoin:miter;stroke-miterlimit:4;stroke-dasharray:none;stroke-opacity:1"
         d="m 292.19692,270.63894 1.63185,-0.12225"
         id="path5882"
         inkscape:connector-curvature="0" />
      <path
         style="fill:none;stroke:#000000;stroke-width:0.60000002;stroke-linecap:butt;stroke-linejoin:miter;stroke-miterlimit:4;stroke-dasharray:none;stroke-opacity:1"
         d="m 304.12389,270.3115 -2.82064,0.0398"
         id="path5884"
         inkscape:connector-curvature="0" />
      <path
         style="fill:none;stroke:#000000;stroke-width:0.60000002;stroke-linecap:butt;stroke-linejoin:miter;stroke-miterlimit:4;stroke-dasharray:none;stroke-opacity:1"
         d="m 304.35775,262.03283 c -1.44951,-0.0388 -3.4797,0.3822 -4.26352,-0.18356"
         id="path5886"
         inkscape:connector-curvature="0" />
      <path
         style="fill:none;stroke:#000000;stroke-width:0.60000002;stroke-linecap:butt;stroke-linejoin:miter;stroke-miterlimit:4;stroke-dasharray:none;stroke-opacity:1"
         d="m 290.95143,254.31097 2.64583,0.13229 c 0.35883,0.0299 0.51668,-0.29195 0.62839,-0.69453"
         id="path5888"
         inkscape:connector-curvature="0" />
      <path
         style="fill:none;stroke:#000000;stroke-width:0.60000002;stroke-linecap:butt;stroke-linejoin:miter;stroke-miterlimit:4;stroke-dasharray:none;stroke-opacity:1"
         d="m 301.70013,213.2344 0.0992,1.55443 c 0.20106,1.75729 2.57969,5.22552 3.86954,7.83828 0.18741,0.44097 0.33073,0.90399 0.42994,1.38906 0.0979,0.81194 0.006,1.05404 -0.0661,1.35599"
         id="path5890"
         inkscape:connector-curvature="0" />
      <path
         style="fill:none;stroke:#000000;stroke-width:0.60000002;stroke-linecap:butt;stroke-linejoin:miter;stroke-miterlimit:4;stroke-dasharray:none;stroke-opacity:1"
         d="m 301.53476,210.25784 c 0.33522,0.33224 1.14293,0.327 1.75287,0.46302 0.5116,0.017 0.96162,-0.0995 1.21041,-0.65191"
         id="path5894"
         inkscape:connector-curvature="0" />
      <path
         style="fill:none;stroke:#000000;stroke-width:0.60000002;stroke-linecap:butt;stroke-linejoin:miter;stroke-miterlimit:4;stroke-dasharray:none;stroke-opacity:1"
         d="m 301.10481,211.87841 c 0.87689,0.21865 1.81331,0.19919 2.77813,0.0661 0.17641,-0.0661 0.30866,-0.17641 0.39687,-0.33073"
         id="path5896"
         inkscape:connector-curvature="0" />
      <path
         style="fill:none;stroke:#000000;stroke-width:0.60000002;stroke-linecap:butt;stroke-linejoin:miter;stroke-miterlimit:4;stroke-dasharray:none;stroke-opacity:1"
         d="m 291.90807,210.15782 0.92851,7.9e-4"
         id="path5898"
         inkscape:connector-curvature="0" />
      <path
         style="fill:none;stroke:#000000;stroke-width:0.60000002;stroke-linecap:butt;stroke-linejoin:miter;stroke-miterlimit:4;stroke-dasharray:none;stroke-opacity:1"
         d="m 291.7121,212.04378 c 0.39975,0.19555 0.85708,0.33352 1.38907,0.39683"
         id="path5900"
         inkscape:connector-curvature="0" />
      <path
         style="fill:none;stroke:#000000;stroke-width:0.60000002;stroke-linecap:butt;stroke-linejoin:miter;stroke-miterlimit:4;stroke-dasharray:none;stroke-opacity:1"
         d="m 300.70794,103.79612 -0.62839,0.8599 0.69453,1.35599 2.21589,1.85208 1.52135,2.38125"
         id="path5902"
         inkscape:connector-curvature="0" />
      <path
         style="fill:none;stroke:#000000;stroke-width:0.60000002;stroke-linecap:butt;stroke-linejoin:miter;stroke-miterlimit:4;stroke-dasharray:none;stroke-opacity:1"
         d="m 288.60325,110.11305 1.09141,-2.11667 2.28203,-2.41432 0.62838,-1.65364"
         id="path5904"
         inkscape:connector-curvature="0" />
      <path
         style="fill:none;stroke:#000000;stroke-width:0.60000002;stroke-linecap:butt;stroke-linejoin:miter;stroke-miterlimit:4;stroke-dasharray:none;stroke-opacity:1"
         d="m 291.58892,365.28238 c 3.9746,0.15005 8.44599,0.1897 13.21316,0.16362 v 0 0 0"
         id="path5906"
         inkscape:connector-curvature="0" />
      <path
         style="fill:none;stroke:#000000;stroke-width:0.60000002;stroke-linecap:butt;stroke-linejoin:miter;stroke-miterlimit:4;stroke-dasharray:none;stroke-opacity:1"
         d="m 291.68246,364.0663 c 4.33425,-0.19501 8.61626,-0.18108 12.86238,-0.0236"
         id="path5908"
         inkscape:connector-curvature="0" />
      <ellipse
         style="fill:none;stroke:#000000;stroke-width:0.60000002;stroke-miterlimit:4;stroke-dasharray:none;stroke-opacity:1"
         id="path5292-10-6"
         ry="0.88918728"
         rx="0.90088046"
         cy="229.08035"
         cx="303.84692" />
      <ellipse
         style="fill:none;stroke:#000000;stroke-width:0.60000002;stroke-miterlimit:4;stroke-dasharray:none;stroke-opacity:1"
         id="path5292-10-6-1"
         ry="0.88918728"
         rx="0.90088046"
         cy="113.38728"
         cx="289.99231" />
      <ellipse
         style="fill:none;stroke:#000000;stroke-width:0.60000002;stroke-miterlimit:4;stroke-dasharray:none;stroke-opacity:1"
         id="path5292-10-6-5"
         ry="0.39309353"
         rx="0.32210442"
         cy="118.54665"
         cx="302.42773" />
      <ellipse
         style="fill:none;stroke:#000000;stroke-width:0.60000002;stroke-miterlimit:4;stroke-dasharray:none;stroke-opacity:1"
         id="path5292-10-6-9"
         ry="0.69074976"
         rx="0.60322422"
         cy="261.7193"
         cx="290.8522" />
    </g>
  </g>
</svg>
