<?xml version="1.0" encoding="UTF-8" standalone="no"?>
<svg
   xmlns:dc="http://purl.org/dc/elements/1.1/"
   xmlns:cc="http://creativecommons.org/ns#"
   xmlns:rdf="http://www.w3.org/1999/02/22-rdf-syntax-ns#"
   xmlns:svg="http://www.w3.org/2000/svg"
   xmlns="http://www.w3.org/2000/svg"
   xmlns:sodipodi="http://sodipodi.sourceforge.net/DTD/sodipodi-0.dtd"
   xmlns:inkscape="http://www.inkscape.org/namespaces/inkscape"
   width="313.54962mm"
   height="27.835329mm"
   viewBox="0 0 313.54962 27.835329"
   version="1.1"
   id="svg1017"
   sodipodi:docname="old-chanter.svg"
   inkscape:version="0.92.5 (2060ec1f9f, 2020-04-08)">
  <sodipodi:namedview
     pagecolor="#ffffff"
     bordercolor="#666666"
     borderopacity="1"
     objecttolerance="10"
     gridtolerance="10"
     guidetolerance="10"
     inkscape:pageopacity="0"
     inkscape:pageshadow="2"
     inkscape:window-width="777"
     inkscape:window-height="480"
     id="namedview37"
     showgrid="false"
     inkscape:zoom="0.19914445"
     inkscape:cx="593.04295"
     inkscape:cy="53.106818"
     inkscape:window-x="72"
     inkscape:window-y="27"
     inkscape:window-maximized="0"
     inkscape:current-layer="svg1017" />
  <defs
     id="defs1011" />
  <metadata
     id="metadata1014">
    <rdf:RDF>
      <cc:Work
         rdf:about="">
        <dc:format>image/svg+xml</dc:format>
        <dc:type
           rdf:resource="http://purl.org/dc/dcmitype/StillImage" />
        <dc:title />
      </cc:Work>
    </rdf:RDF>
  </metadata>
  <g
     id="layer1"
     transform="rotate(90,120.89881,227.04267)">
    <g
       transform="translate(24.422262,43.088878)"
       id="g970">
      <path
         id="path3744-9"
         d="m -106.68241,23.566977 -0.11811,-16.3710895 c -4.45142,-0.12184 -11.30752,-0.27743 -13.70164,1.63002 l 0.0236,14.2213595"
         style="fill:none;stroke:#000000;stroke-width:1.06500006;stroke-linecap:butt;stroke-linejoin:miter;stroke-miterlimit:4;stroke-dasharray:none;stroke-opacity:1"
         inkscape:connector-curvature="0" />
      <path
         id="path3746-1"
         d="m -124.77802,25.645857 c 4.52421,-4.22501 15.10621,-5.30663 21.26117,-0.0945 v 0 l -0.0473,0.0472"
         style="fill:none;stroke:#000000;stroke-width:1.06500006;stroke-linecap:butt;stroke-linejoin:miter;stroke-miterlimit:4;stroke-dasharray:none;stroke-opacity:1"
         inkscape:connector-curvature="0" />
      <path
         id="path3748-2"
         d="m -124.77802,25.645857 c -0.62686,5.539 1.19278,7.40825 2.17337,10.53608 v 0 0"
         style="fill:none;stroke:#000000;stroke-width:1.06500006;stroke-linecap:butt;stroke-linejoin:miter;stroke-miterlimit:4;stroke-dasharray:none;stroke-opacity:1"
         inkscape:connector-curvature="0" />
      <path
         id="path3750-7"
         d="m -122.60465,36.181937 c 5.97345,-3.03816 11.43789,-4.71428 15.30803,-0.18899"
         style="fill:none;stroke:#000000;stroke-width:1.06500006;stroke-linecap:butt;stroke-linejoin:miter;stroke-miterlimit:4;stroke-dasharray:none;stroke-opacity:1"
         inkscape:connector-curvature="0" />
      <path
         id="path3752-0"
         d="m -107.29662,35.992947 c 0.0535,-0.0208 2.95157,-4.48932 3.45848,-6.86026 0.24093,-1.12687 0.42904,-2.28013 0.32129,-3.58134"
         style="fill:none;stroke:#000000;stroke-width:1.06500006;stroke-linecap:butt;stroke-linejoin:miter;stroke-miterlimit:4;stroke-dasharray:none;stroke-opacity:1"
         inkscape:connector-curvature="0" />
      <path
         id="path3754-9"
         d="m -122.60465,36.181937 -0.56224,0.3827 1.42213,1.78594 c 4.57765,-1.21056 9.18421,-3.14385 13.59297,-0.13229 l 0.89297,-1.45521 -0.0378,-0.77013"
         style="fill:none;stroke:#000000;stroke-width:1.06500006;stroke-linecap:butt;stroke-linejoin:miter;stroke-miterlimit:4;stroke-dasharray:none;stroke-opacity:1"
         inkscape:connector-curvature="0" />
      <path
         id="path3756-3"
         d="m -121.74476,38.350577 c 1.86428,-1.4236 4.54914,-1.83604 6.68073,-2.18281 3.42111,-0.47342 5.95603,-0.029 6.91224,2.05052 l -0.23151,1.9513 c -5.85454,-2.52892 -9.17476,-1.22387 -11.60859,1.42214 z"
         style="fill:none;stroke:#000000;stroke-width:1.06500006;stroke-linecap:butt;stroke-linejoin:miter;stroke-miterlimit:4;stroke-dasharray:none;stroke-opacity:1"
         inkscape:connector-curvature="0" />
      <path
         id="path3758-6"
         d="m -119.132,40.566457 -0.26628,27.27318 -0.56127,39.475713 -0.37417,50.32686 -1.12254,34.6114 -0.20978,67.47286 c -0.36994,6.95806 -0.73819,13.93396 -1.45229,17.27829 -0.78923,5.68735 -1.98475,9.92341 -3.01514,12.16078 -0.75764,1.81647 -1.5872,3.45319 -2.43215,5.0514 -0.45143,0.64971 -0.90137,1.32178 -1.30962,2.61924 -0.27607,1.30961 -0.21368,2.81768 0.39071,4.12729 0.23132,0.37029 0.4955,0.59209 0.87546,0.80836 0.96083,0.40325 1.73923,0.95438 4.87176,1.92048 2.29708,0.53403 4.82287,0.50215 7.33245,0.62743 2.28826,-0.0624 3.59217,-0.12473 5.23848,-0.18709 1.66406,-0.15896 3.4536,-0.56891 5.29328,-1.0791 1.57047,-0.96002 2.10327,-1.82325 1.91433,-3.1351 l -0.14169,-2.11281 -5.00794,-13.13021 c -1.13523,-3.69652 -1.40937,-8.77078 -1.6838,-13.84459 l -1.12253,-34.23721 1.87088,-62.48763 0.18709,-97.473193 0.48127,-36.8601"
         style="fill:none;stroke:#000000;stroke-width:1.06500006;stroke-linecap:butt;stroke-linejoin:miter;stroke-miterlimit:4;stroke-dasharray:none;stroke-opacity:1"
         inkscape:connector-curvature="0" />
      <path
         id="path3760-0"
         d="m -108.3833,40.169587 v 0 c 1.09725,0.69698 0.73269,3.55511 0.84052,5.38051 -0.3111,0.56965 -1.17953,0.49146 -1.91089,0.57261"
         style="fill:none;stroke:#000000;stroke-width:1.06500006;stroke-linecap:butt;stroke-linejoin:miter;stroke-miterlimit:4;stroke-dasharray:none;stroke-opacity:1"
         inkscape:connector-curvature="0" />
      <path
         id="path3762-6"
         d="m -108.12743,45.971047 -1.67634,26.66949"
         style="fill:none;stroke:#000000;stroke-width:1.06500006;stroke-linecap:butt;stroke-linejoin:miter;stroke-miterlimit:4;stroke-dasharray:none;stroke-opacity:1"
         inkscape:connector-curvature="0" />
      <path
         id="path3764-2"
         d="m -110.04385,142.67512 3.08697,-0.37419 -1.40317,-18.89595 -1.59025,-26.379503"
         style="fill:none;stroke:#000000;stroke-width:1.06500006;stroke-linecap:butt;stroke-linejoin:miter;stroke-miterlimit:4;stroke-dasharray:none;stroke-opacity:1"
         inkscape:connector-curvature="0" />
      <path
         id="path3766-6"
         d="m -110.04385,148.28777 2.99342,0.46772 -0.8419,12.81557 -0.37417,11.5995 -0.8419,15.24774 -1.77734,17.9605"
         style="fill:none;stroke:#000000;stroke-width:1.06500006;stroke-linecap:butt;stroke-linejoin:miter;stroke-miterlimit:4;stroke-dasharray:none;stroke-opacity:1"
         inkscape:connector-curvature="0" />
      <path
         id="path3768-1"
         d="m -120.7079,164.56448 h -3.55468 l 0.56126,16.93153 0.37418,20.86038 0.8419,17.49279 0.8419,11.03825"
         style="fill:none;stroke:#000000;stroke-width:1.06500006;stroke-linecap:butt;stroke-linejoin:miter;stroke-miterlimit:4;stroke-dasharray:none;stroke-opacity:1"
         inkscape:connector-curvature="0" />
      <path
         id="path3770-8"
         d="m -110.88574,206.3788 0.6548,36.57585"
         style="fill:none;stroke:#000000;stroke-width:1.06500006;stroke-linecap:butt;stroke-linejoin:miter;stroke-miterlimit:4;stroke-dasharray:none;stroke-opacity:1"
         inkscape:connector-curvature="0" />
      <path
         id="path3774-7"
         d="m -111.72764,242.88449 2.31522,-0.0234 -0.32741,5.98683 h -1.75395"
         style="fill:none;stroke:#000000;stroke-width:1.06500006;stroke-linecap:butt;stroke-linejoin:miter;stroke-miterlimit:4;stroke-dasharray:none;stroke-opacity:1"
         inkscape:connector-curvature="0" />
      <path
         id="path3776-9"
         d="m -121.64334,230.88743 -2.87954,38.87437 2.38125,0.39684"
         style="fill:none;stroke:#000000;stroke-width:1.06500006;stroke-linecap:butt;stroke-linejoin:miter;stroke-miterlimit:4;stroke-dasharray:none;stroke-opacity:1"
         inkscape:connector-curvature="0" />
      <path
         id="path3778-2"
         d="m -124.21581,264.3295 2.24506,0.0936"
         style="fill:none;stroke:#000000;stroke-width:1.06500006;stroke-linecap:butt;stroke-linejoin:miter;stroke-miterlimit:4;stroke-dasharray:none;stroke-opacity:1"
         inkscape:connector-curvature="0" />
      <path
         id="path3780-0"
         d="m -129.87524,296.83618 c 5.65533,3.76177 15.79733,5.74787 25.77478,0.96946"
         style="fill:none;stroke:#000000;stroke-width:1.06500006;stroke-linecap:butt;stroke-linejoin:miter;stroke-miterlimit:4;stroke-dasharray:none;stroke-opacity:1"
         inkscape:connector-curvature="0" />
      <path
         id="path3782-2"
         d="m -130.07913,299.03133 c 10.55357,6.03297 20.62492,3.58394 26.12036,0.88712"
         style="fill:none;stroke:#000000;stroke-width:1.06500006;stroke-linecap:butt;stroke-linejoin:miter;stroke-miterlimit:4;stroke-dasharray:none;stroke-opacity:1"
         inkscape:connector-curvature="0" />
      <ellipse
         style="stroke-width:1.06500006;stroke-miterlimit:4;stroke-dasharray:none"
         ry="2.3977864"
         rx="1.4552083"
         cy="83.081696"
         cx="-114.17106"
         id="path3784-37" />
      <ellipse
         style="stroke-width:1.06500006;stroke-miterlimit:4;stroke-dasharray:none"
         ry="2.3977864"
         rx="1.4552083"
         cy="104.36414"
         cx="-114.43564"
         id="path3784-3-5" />
      <ellipse
         style="stroke-width:1.06500006;stroke-miterlimit:4;stroke-dasharray:none"
         ry="2.3977864"
         rx="1.4552083"
         cy="124.43939"
         cx="-114.53486"
         id="path3784-6-9" />
      <ellipse
         style="stroke-width:1.06500006;stroke-miterlimit:4;stroke-dasharray:none"
         ry="2.3977864"
         rx="1.4552083"
         cy="145.67221"
         cx="-114.7333"
         id="path3784-7-2" />
      <ellipse
         style="stroke-width:1.06500006;stroke-miterlimit:4;stroke-dasharray:none"
         ry="2.3977864"
         rx="1.4552083"
         cy="165.64822"
         cx="-114.7333"
         id="path3784-5-2" />
      <ellipse
         style="stroke-width:1.06500006;stroke-miterlimit:4;stroke-dasharray:none"
         ry="2.3977864"
         rx="1.4552083"
         cy="185.75656"
         cx="-115.13017"
         id="path3784-35-8" />
      <ellipse
         style="stroke-width:1.06500006;stroke-miterlimit:4;stroke-dasharray:none"
         ry="2.3977864"
         rx="1.4552083"
         cy="204.87271"
         cx="-115.42783"
         id="path3784-62-9" />
      <path
         id="path3831-7"
         d="m -110.9559,-8.1651325 c 0.17806,2.67656 -0.29795,11.22035 -0.86529,11.20193 -0.98475,-0.0779 -1.92274,-0.0856 -2.78294,0.0234 -1.9883,-0.44391 -1.88626,-8.3156 -1.77735,-10.96807 l 5.42558,-0.25725"
         style="fill:none;stroke:#000000;stroke-width:1.06500006;stroke-linecap:butt;stroke-linejoin:miter;stroke-miterlimit:4;stroke-dasharray:none;stroke-opacity:1"
         inkscape:connector-curvature="0" />
      <path
         id="path3833-3"
         d="m -114.42223,3.0684575 0.0754,2.96176 1.87089,-0.0702 0.29927,-2.94806"
         style="fill:none;stroke:#000000;stroke-width:1.06500006;stroke-linecap:butt;stroke-linejoin:miter;stroke-miterlimit:4;stroke-dasharray:none;stroke-opacity:1"
         inkscape:connector-curvature="0" />
      <path
         id="path3835-6"
         d="m -114.34688,6.0302175 c -0.26831,0.16956 -0.44597,0.36501 -0.56005,0.57863 -0.0943,0.23284 -0.0793,0.42196 -0.0661,0.61185"
         style="fill:none;stroke:#000000;stroke-width:1.06500006;stroke-linecap:butt;stroke-linejoin:miter;stroke-miterlimit:4;stroke-dasharray:none;stroke-opacity:1"
         inkscape:connector-curvature="0" />
      <path
         id="path3837-1"
         d="m -112.47599,5.9600575 c 0.21219,0.0346 0.45745,0.11558 0.6283,0.28498 0.14937,0.18186 0.27766,0.38947 0.23151,0.81029"
         style="fill:none;stroke:#000000;stroke-width:1.06500006;stroke-linecap:butt;stroke-linejoin:miter;stroke-miterlimit:4;stroke-dasharray:none;stroke-opacity:1"
         inkscape:connector-curvature="0" />
    </g>
  </g>
</svg>
